{"title":"La Principessa Mononoke - Mononoke-Hime - HDmux 720p - ITA JAP E","uid":9203031,"size":5057322141,"categoryP":"video","categoryS":"hd___movies","magnet":"?xt=urn:btih:05d491fdca85b2bf35d76826b3f3d63df55e747e&amp;dn=La+Principessa+Mononoke+-+Mononoke-Hime+-+HDmux+720p+-+ITA+JAP+E&amp;tr=udp%3A%2F%2Ftracker.openbittorrent.com%3A80&amp;tr=udp%3A%2F%2Fopen.demonii.com%3A1337&amp;tr=udp%3A%2F%2Ftracker.coppersurfer.tk%3A6969&amp;tr=udp%3A%2F%2Fexodus.desync.com%3A6969","seeders":6,"leechers":0,"uploader":"OrgazmoITA","files":1,"time":1384633190,"description":"General\nUnique ID: 105772115009845848607470950421661000754 (0x4F92F7E64D0994F7D9FA90C87B08A432)\nComplete name: La.Principessa.Mononoke.HDmux.720p.x264.ITA.JAP.ENG.Ac3.Multisub.mkv\nFormat: Matroska\nFormat version: Version 4 / Version 2\nFile size: 4.71 GiB\nDuration: 2h 13mn\nOverall bit rate: 5 046 Kbps\nMovie name: La Principessa Mononoke - Mononoke Hime (1997)\nEncoded date: UTC 2013-11-16 18:18:30\nWriting application: mkvmerge v6.2.0 ('Promised Land') built on Apr 28 2013 18:50:30\nWriting library: libebml v1.3.0 + libmatroska v1.4.0\n\nVideo\nID: 1\nFormat: AVC\nFormat/Info: Advanced Video Codec\nFormat profile: &lt;a class=&quot;__cf_email__&quot; href=&quot;/cdn-cgi/l/email-protection&quot; data-cfemail=&quot;fbb69a9295bbb7c8d5ca&quot;&gt;[email&amp;#160;protected]&lt;/a&gt;&lt;script cf-hash='f9e31' type=&quot;text/javascript&quot;&gt;\n/* &lt;![CDATA[ */!function(){try{var t=&quot;currentScript&quot;in document?document.currentScript:function(){for(var t=document.getElementsByTagName(&quot;script&quot;),e=t.length;e--;)if(t[e].getAttribute(&quot;cf-hash&quot;))return t[e]}();if(t&amp;&amp;t.previousSibling){var e,r,n,i,c=t.previousSibling,a=c.getAttribute(&quot;data-cfemail&quot;);if(a){for(e=&quot;&quot;,r=parseInt(a.substr(0,2),16),n=2;a.length-n;n+=2)i=parseInt(a.substr(n,2),16)^r,e+=String.fromCharCode(i);e=document.createTextNode(e),c.parentNode.replaceChild(e,c)}}}catch(u){}}();/* ]]&gt; */&lt;/script&gt;\nFormat settings, CABAC: No\nFormat settings, ReFrames: 2 frames\nCodec ID: V_MPEG4/ISO/AVC\nDuration: 2h 13mn\nBit rate: 3 730 Kbps\nWidth: 1 280 pixels\nHeight: 720 pixels\nDisplay aspect ratio: 16:9\nFrame rate mode: Constant\nFrame rate: 23.976 fps\nColor space: YUV\nChroma subsampling: 4:2:0\nBit depth: 8 bits\nScan type: Progressive\nBits/(Pixel*Frame): 0.169\nStream size: 3.48 GiB (74%)\nTitle: x264\nLanguage: Japanese\nDefault: Yes\nForced: No\n\nAudio #1\nID: 2\nFormat: AC-3\nFormat/Info: Audio Coding 3\nMode extension: CM (complete main)\nFormat settings, Endianness: Big\nCodec ID: A_AC3\nDuration: 2h 13mn\nBit rate mode: Constant\nBit rate: 448 Kbps\nChannel count: 6 channels\nChannel positions: Front: L C R, Side: L R, LFE\nSampling rate: 44.1 KHz\nBit depth: 16 bits\nCompression mode: Lossy\nStream size: 428 MiB (9%)\nTitle: Italiano Ac3 448 Kbps\nLanguage: Italian\nDefault: Yes\nForced: No\n\nAudio #2\nID: 3\nFormat: AC-3\nFormat/Info: Audio Coding 3\nMode extension: CM (complete main)\nFormat settings, Endianness: Big\nCodec ID: A_AC3\nDuration: 2h 13mn\nBit rate mode: Constant\nBit rate: 384 Kbps\nChannel count: 6 channels\nChannel positions: Front: L C R, Side: L R, LFE\nSampling rate: 48.0 KHz\nBit depth: 16 bits\nCompression mode: Lossy\nStream size: 367 MiB (8%)\nTitle: Japanese Ac3 5.1\nLanguage: Japanese\nDefault: No\nForced: No\n\nAudio #3\nID: 4\nFormat: AC-3\nFormat/Info: Audio Coding 3\nMode extension: CM (complete main)\nFormat settings, Endianness: Big\nCodec ID: A_AC3\nDuration: 2h 13mn\nBit rate mode: Constant\nBit rate: 384 Kbps\nChannel count: 6 channels\nChannel positions: Front: L C R, Side: L R, LFE\nSampling rate: 48.0 KHz\nBit depth: 16 bits\nCompression mode: Lossy\nStream size: 367 MiB (8%)\nTitle: English Ac3 5.1\nLanguage: English\nDefault: No\nForced: No\n\nText #1\nID: 5\nFormat: UTF-8\nCodec ID: S_TEXT/UTF8\nCodec ID/Info: UTF-8 Plain Text\nTitle: Italiano\nLanguage: Italian\nDefault: No\nForced: No\n\nText #2\nID: 6\nFormat: UTF-8\nCodec ID: S_TEXT/UTF8\nCodec ID/Info: UTF-8 Plain Text\nTitle: English\nLanguage: English\nDefault: No\nForced: No\n\nText #3\nID: 7\nFormat: UTF-8\nCodec ID: S_TEXT/UTF8\nCodec ID/Info: UTF-8 Plain Text\nTitle: Francais\nLanguage: French\nDefault: No\nForced: No\n\nText #4\nID: 8\nFormat: UTF-8\nCodec ID: S_TEXT/UTF8\nCodec ID/Info: UTF-8 Plain Text\nTitle: Espanol\nLanguage: Spanish\nDefault: No\nForced: No\n\nText #5\nID: 9\nFormat: UTF-8\nCodec ID: S_TEXT/UTF8\nCodec ID/Info: UTF-8 Plain Text\nTitle: Deutsch\nLanguage: German\nDefault: No\nForced: No\n\nText #6\nID: 10\nFormat: UTF-8\nCodec ID: S_TEXT/UTF8\nCodec ID/Info: UTF-8 Plain Text\nTitle: Dutch\nLanguage: Dutch\nDefault: No\nForced: No\n","torrent":{"xt":"urn:btih:05d491fdca85b2bf35d76826b3f3d63df55e747e","amp;dn":"La+Principessa+Mononoke+-+Mononoke-Hime+-+HDmux+720p+-+ITA+JAP+E","amp;tr":["udp%3A%2F%2Ftracker.openbittorrent.com%3A80","udp%3A%2F%2Fopen.demonii.com%3A1337","udp%3A%2F%2Ftracker.coppersurfer.tk%3A6969","udp%3A%2F%2Fexodus.desync.com%3A6969"],"infoHash":"05d491fdca85b2bf35d76826b3f3d63df55e747e","infoHashBuffer":{"type":"Buffer","data":[5,212,145,253,202,133,178,191,53,215,104,38,179,243,214,61,245,94,116,126]},"announce":[],"urlList":[]}}